<svg id="logo" xmlns="http://www.w3.org/2000/svg" viewBox="0 0 100 100">
  <circle class="logo-border" fill="none" stroke-miterlimit="10" cx="50" cy="50" r="49" stroke-width="2"/>
  <circle class="logo-border-draw" fill="none" stroke-width="2" stroke-dasharray="0,300" stroke-linecap="round" cx="50" cy="50" r="49" stroke-width="2"/>
  <g class="logo-inner" fill-rule="evenodd" clip-rule="evenodd">
    <path fill="#DCDCDC" d="M55.133 7.614v-.678c.831-.217 4.189.109 2.034.678h-2.034z"/>
    <path fill="#A8A8A8" d="M39.523 17.794c-2.407.144-1.341-3.184-4.072-2.715 1.395-1.568 5.86-.471 7.464 0-.538 1.499-3.19.883-3.392 2.715z"/>
    <path fill="#BEBEBE" d="M53.775 23.224c.985.371 3.506-.793 3.392.679-.985-.371-3.506.793-3.392-.679zM88.389 37.476c1.497.084.288 2.879.674 4.072-1.498-.085-.288-2.88-.674-4.072z"/>
    <path fill="#DCDCDC" d="M6.267 44.94v11.537c-1.127-2.283-1.127-9.253 0-11.537z"/>
    <path fill="#909090" d="M6.267 46.298h.68v8.823h-.68v-8.823z"/>
    <path fill="#A8A8A8" d="M89.063 47.656v.678c-1.469-.113-.304 2.408-.674 3.393-2.57-.842.729-2.619-2.716-1.357-.122-2.382 2.29-2.232 2.716-4.071.525.148.783.569.674 1.357z"/>
    <path fill="#DCDCDC" d="M67.347 75.481c.128-1.005 1.642-.624 2.715-.678-.21.92-1.699.563-2.715.678zM58.524 75.481h7.465c-.949 1.125-6.514 1.125-7.465 0z"/>
    <path fill="#BEBEBE" d="M60.56 78.873c-.831.218-4.19-.108-2.035-.677h2.035v.677z"/>
    <path fill="#DCDCDC" d="M60.56 78.873v-.677h11.538v.677H60.56zM53.775 94.484v-.681h2.714c2.196.784-1.822.769-2.714.681z"/>
    <path fill="#BEBEBE" d="M53.775 7.614c-.821 1.752 3.882 3.788 4.749 6.108-.55-.13-.677-.681-1.357-.679-.928-2.916-4.907-2.781-5.429-6.107h3.395v.678h-1.358z"/>
    <path fill="#DCDCDC" d="M57.167 13.043c.681-.002.808.549 1.357.679 1.458 1.708 2.787 3.547 4.074 5.429v.68c-2.195-1.879-3.379-4.765-5.431-6.788zM64.633 24.581c.912.447 1.266 1.451 1.356 2.714-.909-.446-1.261-1.449-1.356-2.714zM66.668 31.367c1.563 17.402.956 38.356-20.359 38.006-.975 1.461 3.098 3.662 5.43 4.07v.681c-6.287-2.313-11.522-5.671-11.537-14.252 5.215.004 12.553-.688 19.683-.681 1.568-2.502.233-7.906.676-11.536 3.429-4.037 7.181-7.748 6.107-16.288zM74.812 72.768c1.447-1.496 3.519-2.366 3.395-5.429 2.596-3.292.16 2.833-.68 4.07 7.11-4.428 10.558-12.516 11.536-23.075v-.678c1.122-.093 1.122-4.659 0-4.751v-1.357c-.386-1.192.823-3.988-.674-4.072v-.678c-.453-1.815-.287-4.241-1.358-5.431v-.678c-.094-1.265-.446-2.269-1.357-2.714.19-1.096-.644-1.168-.68-2.037 14.646 13.026 7.565 45.586-11.538 48.186v-.681c.578.128.642-.263.681-.676l.675.001zM83.636 24.581c-1.075-2.771-2.425-5.265-5.43-6.108a6.118 6.118 0 0 0-2.714-2.715c-.17-.736-1.353-.459-1.356-1.357 4.917 2.321 8.387 6.092 10.857 10.859-.55-.13-.677-.681-1.357-.679z"/>
    <path fill="#BEBEBE" d="M72.098 13.043c1.163-.029 1.759.505 2.038 1.357-1.098.192-1.169-.641-2.038-.678v-.679z"/>
    <path fill="#DCDCDC" d="M72.098 13.043c-2.803-1.72-6.44-2.609-9.499-4.072 4.04.485 7.331 1.716 9.499 4.072z"/>
    <path fill="#909090" d="M75.492 15.758a6.123 6.123 0 0 1 2.714 2.715 6.103 6.103 0 0 1-2.714-2.715zM83.636 30.689c-.67 6.571-3.158 11.321-4.071 17.645-1.242-14.142-8.931-21.836-16.966-29.183-1.287-1.882-2.616-3.721-4.074-5.429-.867-2.321-5.57-4.356-4.749-6.108 9.303 9.02 24.52 12.127 27.824 27.147 1.463-.573.572-3.499 2.036-4.072z"/>
    <path fill="#DCDCDC" d="M53.095 23.224c1.849-1.804 5.914-.063 7.465.679-3.399-6.571-19.267-12.975-31.217-8.823-1.418-.288-1.797.465-2.714.678-1.852-.494-1.367 1.349-2.714 1.358-2.478.01-3.049 1.929-4.751 2.715-1.787.701-2.285 2.69-4.072 3.393 3.981-3.178 5.627-6.805 9.501-9.501 14.06-9.788 33.645-2.299 39.362 13.573h-.68c-1.055-2.111-3.061-3.273-6.107-3.393.114-1.472-2.406-.308-3.392-.679h-.681zm-25.11-9.501c.679-.743 5.124-1.124 3.392-2.037-.678.743-5.122 1.124-3.392 2.037zM12.376 27.295c.685-1.351 1.173-2.898 2.714-3.393-.24.89-1.194 1.068-1.357 2.035v.68c-.578-.126-.641.263-.68.678h-.677zM8.982 34.761c.391-3.003 1.515-5.272 3.394-6.787-1.268 2.126-2.07 4.717-3.394 6.787zM6.947 59.191c.921.21.562 1.702.678 2.715-.25 1.154.53 1.282 1.357 1.359-1.682 2.29-2.516-1.955-2.035-4.074zM8.982 60.551c.738-.169.461-1.351 1.357-1.359-.093 1.266-.446 2.271-1.357 2.715v-.677-.679zM10.339 58.516c.519-1.969 1.074-3.905 2.714-4.751-1.001 1.484-1.322 3.651-2.714 4.751zM13.054 52.407c1.711-1.232 1.931-3.953 4.072-4.751-1.466 1.702-2.14 4.192-4.072 5.43v-.679zM17.125 46.298c8.316-10.154 33.18-28.49 46.829-8.823 2.016-2.503-.376-6.385 0-9.501 2.689 5.747 1.41 15.43-2.715 16.288-3.254.676-12.58-9.53-15.61-10.179-15.464-1.667-21.148 6.449-28.504 12.894v-.679z"/>
    <path fill="#BEBEBE" d="M29.342 15.08c11.951-4.152 27.818 2.252 31.217 8.823-1.551-.742-5.616-2.482-7.465-.679-.55.129-.675.68-1.356.679 3.529 1.9 7.93 2.93 10.86 5.429.794-.109.57-1.236.676-2.036h.68v.679c-.376 3.116 2.016 6.998 0 9.501-13.648-19.667-38.512-1.331-46.829 8.823 4.439-6.625 6.926-15.646 14.252-20.36 2.015-1.295 4.65-1.526 6.109-2.714 1.676-1.366-.5-4.647-2.714-8.823-2.517-.482-2.913 1.159-5.43.678zm13.573 0c-1.604-.471-6.069-1.568-7.464 0 2.731-.469 1.665 2.858 4.072 2.715.202-1.833 2.854-1.217 3.392-2.715z"/>
    <path fill="#BEBEBE" d="M23.914 17.116c1.348-.009.863-1.853 2.714-1.358-3.301 2.411 3.817 3.671 4.071 6.788-3.139-.933-5.047-3.096-6.785-5.43zM31.377 11.686c1.732.913-2.713 1.294-3.392 2.037-1.73-.913 2.714-1.294 3.392-2.037z"/>
    <path fill="#A8A8A8" d="M62.599 19.151c8.035 7.346 15.724 15.041 16.966 29.183.913-6.324 3.401-11.074 4.071-17.645.077-3.831.836-3.191 0-6.108.681-.002.808.549 1.357.679v.678c.036.869.87.94.68 2.037.092 1.264.446 2.268 1.357 2.714v.678c.017 4.318-3.37 5.229-4.751 8.145 1.4 1.573 4.027-4.966 5.43-3.394-.126.578.266.641.68.68v.678c.387 1.193-.823 3.987.674 4.072v3.393c-3.219.175-3.479 3.306-7.463 2.715-3.72 4.945-1.077 12.853-3.394 18.324-.856-3.744-9.392 4.664-8.145 7.464.1 1.516 1.71-.88 3.394 0v.681c-1.573-.217-2.606.11-3.394.68-1.073.054-2.587-.327-2.715.678h-6.107c-.082-1.498-2.88-.289-4.072-.678 6.685-4.669 14.851-10.646 16.288-21.039 1.407-10.149-3.173-16.865-6.108-25.112-.659.02-.526.832-.679 1.357-.92-.21-.563-1.698-.679-2.714-.091-1.263-.444-2.267-1.356-2.714-.177-2.085-1.472-3.051-2.034-4.75v-.682zM29.342 15.08c2.517.481 2.913-1.159 5.43-.679 2.214 4.176 4.39 7.458 2.714 8.823-1.458 1.188-4.094 1.418-6.109 2.714-7.326 4.714-9.813 13.736-14.252 20.36v1.358c-2.141.799-2.361 3.519-4.072 4.751 1.08-12.948 4.475-23.578 13.574-28.504-3.641-2.929-10.673-.617-12.895 2.035.163-.967 1.117-1.145 1.357-2.035a13.778 13.778 0 0 0 4.072-4.071c1.702-.786 2.273-2.705 4.751-2.715 1.738 2.334 3.646 4.497 6.786 5.43-.254-3.117-7.373-4.377-4.071-6.788.918-.214 1.297-.967 2.715-.679z"/>
    <path fill="#BEBEBE" d="M15.09 23.224c1.787-.702 2.285-2.691 4.072-3.393-1.07 1.643-2.427 3-4.072 4.071v-.678z"/>
    <path fill="#757575" d="M8.304 36.798c2.333-2.417 3.755-5.746 4.75-9.502.039-.415.102-.804.68-.678.977-.38 1.655-1.059 2.035-2.037-4.919 7.287-10.061 24.024-6.787 35.97v.679c-.549.128-.677.68-1.357.677-.116-1.013.243-2.505-.678-2.715v-1.356-2.714-8.823-1.358c1.517-.292.274-3.344.678-4.75-.217-1.575.109-2.606.679-3.393z"/>
    <path fill="#909090" d="M13.733 25.938c2.222-2.652 9.253-4.964 12.895-2.035-9.099 4.926-12.495 15.557-13.574 28.504v1.358c-1.64.846-2.195 2.782-2.714 4.751v.676c-.896.009-.62 1.19-1.357 1.359-3.274-11.945 1.867-28.683 6.787-35.97-.38.978-1.058 1.657-2.035 2.037-.002-.227-.002-.453-.002-.68z"/>
    <path fill="#BEBEBE" d="M85.673 27.975c.911.446 1.264 1.45 1.357 2.714-.911-.446-1.265-1.451-1.357-2.714zM87.03 31.367c1.071 1.19.905 3.616 1.358 5.431-.414-.039-.806-.102-.68-.68-1.402-1.572-4.029 4.966-5.43 3.394 1.382-2.916 4.769-3.827 4.752-8.145zM89.063 42.904c1.122.093 1.122 4.659 0 4.751.109-.788-.148-1.208-.674-1.357-.426 1.839-2.838 1.689-2.716 4.071 3.445-1.261.146.516 2.716 1.357.37-.984-.795-3.506.674-3.393-.979 10.56-4.426 18.647-11.536 23.075.84-1.237 3.275-7.362.68-4.07v-1.359c2.316-5.471-.326-13.379 3.394-18.324 3.983.591 4.244-2.541 7.463-2.715l-.001-2.036zM66.668 30.01c.152-.526.02-1.338.679-1.357 2.936 8.248 7.516 14.963 6.108 25.112-1.438 10.393-9.604 16.37-16.288 21.039 1.192.389 3.99-.82 4.072.678h-2.715c-2.875.16-4.805-.624-6.786-1.357v-.681c-2.332-.408-6.404-2.609-5.43-4.07 21.315.351 21.923-20.604 20.359-38.006l.001-1.358z"/>
    <path fill="#A8A8A8" d="M53.095 23.224h.681c-.114 1.472 2.406.308 3.392.679 3.047.12 5.053 1.282 6.107 3.393-.105.8.118 1.927-.676 2.036-2.931-2.499-7.331-3.529-10.86-5.429.681.001.806-.55 1.356-.679zm4.072 2.036c5.52 2.571 3.354-1.131 0 0z"/>
    <path fill="#909090" d="M57.167 25.26c3.354-1.131 5.52 2.571 0 0zM13.054 27.295c-.994 3.757-2.416 7.085-4.75 9.502-.192-1.096.641-1.169.678-2.037 1.324-2.07 2.126-4.662 3.394-6.787v-.679l.678.001z"/>
    <path fill="#DCDCDC" d="M49.024 75.481c-9.963-8.135-25.337-10.861-23.075-31.219-1.629-.473-4.479 3.646-6.107 5.43-.13.55-.682.675-.68 1.356h-.678c5.051-8.659 16.047-19.453 29.183-13.573-3.428 3.359-9.032 4.543-11.538 8.823.153.977 2.026.236 2.037 1.357-.792 13.875 1.283 23.21 10.858 27.826zM18.484 51.727C14.58 63.674 20.972 79.569 29.342 85.66c1.601.211 1.263 2.358 3.393 2.035 1.088 1.177 2.537 1.989 4.073 2.716 1.874.842 3.446 1.982 6.107 2.037v.677c-2.417.721-6.929-.205-8.823-2.035.597-1.527-4.879-2.788-6.106-4.751-1.237 1.948 4.075 3.141 5.429 4.751-14.71-3.347-24.364-24.178-14.931-39.363zM59.884 93.125c.801-1.231 3.538-.532 4.749-1.355-.654 1.379-2.607 1.465-4.749 1.355zM65.313 91.77c.445-.911 1.449-1.266 2.715-1.358-.448.91-1.453 1.264-2.715 1.358z"/>
    <path fill="#BEBEBE" d="M70.741 89.056c.296-.836.868-1.396 2.035-1.36-.295.836-.867 1.395-2.035 1.36z"/>
    <path fill="#DCDCDC" d="M78.206 84.305a18.77 18.77 0 0 1 4.753-4.753 18.786 18.786 0 0 1-4.753 4.753z"/>
    <path fill="#BEBEBE" d="M74.812 86.339c3.343-2.766 6.095-6.123 9.502-8.821-.24.893-1.194 1.065-1.354 2.034a18.77 18.77 0 0 0-4.753 4.753c-1.601.208-1.264 2.356-3.395 2.034z"/>
    <path fill="#DCDCDC" d="M51.061 76.838c-.169-.737-1.351-.461-1.359-1.356 1.21.376 2.821.349 3.393 1.356h-2.034z"/>
    <path fill="#BEBEBE" d="M19.842 49.692c1.627-1.785 4.478-5.903 6.107-5.43-2.262 20.358 13.112 23.085 23.075 31.219h.678c.008.896 1.19.619 1.359 1.356-8.351-.698-16.108-1.99-21.04-6.108-1.642.619 1.54 2.004.679 4.074-3.824 1.691-5.336 8.712-1.357 10.856-8.371-6.091-14.763-21.986-10.858-33.934v-.678h.678v.678c-.015 1.6 1.17 1.999.68 4.074 1.227 3.747 2.993 6.959 5.429 9.499.275-3.904-4.19-8.922-3.394-15.607-.892-.813-1.068-.263-2.036.001zm6.107 30.54c-.292-.918.337-5.389-2.035-6.108-.011 1.12-1.883.38-2.037 1.357 1.203 1.315 2.532 6.024 4.072 4.751z"/>
    <path fill="#A8A8A8" d="M21.877 75.481c.153-.978 2.025-.237 2.037-1.357 2.372.72 1.744 5.19 2.035 6.108-1.54 1.273-2.869-3.436-4.072-4.751zM19.842 49.692c.968-.265 1.144-.814 2.035 0-.796 6.686 3.669 11.703 3.394 15.607-2.437-2.54-4.202-5.752-5.429-9.499 1.083.95 1.732 2.336 2.035 4.071 1.324-1.813-1.662-5.101-1.358-8.146-.3-.984-.596.069-1.357 0v-.678c-.002-.68.55-.805.68-1.355z"/>
    <path fill="#909090" d="M19.162 51.727c.761.069 1.057-.984 1.357 0-.304 3.045 2.682 6.333 1.358 8.146-.303-1.735-.952-3.121-2.035-4.071.49-2.076-.695-2.476-.68-4.075z"/>
    <path fill="#BEBEBE" d="M36.808 90.411c-1.537-.727-2.985-1.539-4.073-2.716 2.402-.538 1.303-4.578 2.037-6.784 1.124.95 1.124 6.514 0 7.465.076 1.28 2.243.471 2.036 2.035zM33.415 91.09c-1.354-1.61-6.666-2.803-5.429-4.751 1.228 1.963 6.704 3.224 6.106 4.751h-.677z"/>
    <path fill="#909090" d="M78.206 65.979v1.359c.124 3.063-1.947 3.933-3.395 5.429.354-1.006 1.006-1.713 1.359-2.715-.71.5-3.189 2.584-2.035 2.715-.039.413-.103.804-.681.676-1.684-.88-3.294 1.516-3.394 0-1.246-2.799 7.29-11.208 8.146-7.464z"/>
    <path fill="#757575" d="M74.136 72.768c-1.154-.131 1.325-2.215 2.035-2.715-.354 1.002-1.006 1.709-1.359 2.715h-.676z"/>
    <path fill="#909090" d="M68.706 79.552c-5.219 6.308-18.73 8.508-27.148 7.468-1.19 1.234 2.119 3.728 2.714 5.429-3.392-3.62-6.844-7.182-8.144-12.896 9.56 5.42 20.546-1.542 32.578-.001z"/>
    <path fill="#757575" d="M84.313 76.838v.68c-3.407 2.698-6.159 6.056-9.502 8.821-.547.584-1.857.404-2.035 1.356-1.167-.035-1.739.524-2.035 1.36-1.266.093-2.27.447-2.714 1.355-1.266.093-2.27.447-2.715 1.358h-.68c-1.211.823-3.948.124-4.749 1.355-.987.372-3.509-.793-3.395.679h-10.18c-.496-.631-1.234-1.026-2.036-1.355-.595-1.701-3.904-4.194-2.714-5.429 8.418 1.04 21.929-1.16 27.148-7.468.961.059 1.92.114 2.035-.679h1.356c.985-.37 3.51.795 3.395-.677 3.329-.063 4.908-1.877 8.144-2.038.576-.122.639.268.677.682zM55.133 7.614h2.034c1.189 1.072 3.616.909 5.432 1.357 3.059 1.463 6.696 2.352 9.499 4.072v.679c.869.038.94.87 2.038.678.004.897 1.187.621 1.356 1.357a6.093 6.093 0 0 0 2.714 2.715c3.005.843 4.354 3.336 5.43 6.108.836 2.917.077 2.277 0 6.108-1.464.573-.573 3.5-2.036 4.072-3.305-15.02-18.521-18.127-27.824-27.147l1.357.001z"/>
    <path fill="#909090" d="M7.625 40.19c-.403 1.407.839 4.459-.678 4.75v-2.036c.056-1.073-.327-2.587.678-2.714z"/>
    <path fill="#A8A8A8" d="M6.267 44.94c-.058-.963-.111-1.921.68-2.036v3.394h-.68V44.94z"/>
    <path fill="#BEBEBE" d="M6.947 55.121v2.714c-.661-.019-.528-.831-.68-1.357v-1.356l.68-.001z"/>
    <path fill="#A8A8A8" d="M8.982 63.266c-.827-.077-1.607-.205-1.357-1.359.68.003.808-.549 1.357-.677v2.036zM83.636 76.158c.808-2.054 3.345.48.678.68-.039-.414-.102-.804-.678-.68zM51.061 76.838h2.034c1.814.449 4.24.283 5.43 1.358-2.155.568 1.204.895 2.035.677h10.182c-.115.793-1.074.737-2.035.679-12.032-1.541-23.019 5.421-32.577 0 1.299 5.715 4.751 9.276 8.144 12.896.802.329 1.54.725 2.036 1.355-1.574.218-2.605-.106-3.394-.679v-.677c-2.661-.055-4.233-1.195-6.107-2.037.207-1.564-1.96-.755-2.036-2.035 1.124-.951 1.124-6.515 0-7.465-.734 2.206.365 6.246-2.037 6.784-2.13.323-1.792-1.824-3.393-2.035-3.979-2.145-2.467-9.165 1.357-10.856.861-2.07-2.32-3.455-.679-4.074 4.932 4.119 12.688 5.411 21.04 6.109zM72.098 78.196h3.395c.115 1.472-2.409.307-3.395.677v-.677zM47.667 93.804h6.108v.681c-1.842-.421-5.386.86-6.108-.681z"/>
  </g>
</svg>
