<?xml version="1.0" encoding="utf-8"?>
<!-- Generator: Adobe Illustrator 15.1.0, SVG Export Plug-In . SVG Version: 6.00 Build 0)  -->
<!DOCTYPE svg PUBLIC "-//W3C//DTD SVG 1.1//EN" "http://www.w3.org/Graphics/SVG/1.1/DTD/svg11.dtd">
<svg version="1.1" xmlns="http://www.w3.org/2000/svg" xmlns:xlink="http://www.w3.org/1999/xlink" x="0px" y="0px" width="150px"
	 height="150px" viewBox="0 0 150 150" enable-background="new 0 0 150 150" xml:space="preserve">
<symbol  id="Grime" viewBox="-112.847 -86.396 225.693 172.793">
	<path fill-rule="evenodd" clip-rule="evenodd" d="M-94.845,25.808C-98.615,21.058-89.037,23.556-94.845,25.808L-94.845,25.808z
		 M-107.235-51.026c0.895-0.594,3.771-2.542,4.215-0.476C-103.64-50.769-106.975-49.054-107.235-51.026z M-89.188-53.314
		c3.92-1.255,7.852,2.179,7.149,7.318C-87.791-35.957-98.483-50.341-89.188-53.314z M-52.718,45.503
		c0.809,2.408-1.536,4.934-2.691,5.231C-54.2,49.149-54.402,46.841-52.718,45.503z M-37.639,27.132
		c-1.083,1.979-1.042,4.536-1.789,6.688c0.001,1.456,0.56,1.313,0.493,2.9c-2.325,0.837-1.45,6.306-3.611,5.087
		C-40.952,37.113-41.132,29.744-37.639,27.132z M18.634,29.628c-1.262-0.146-3.689-1.372-3.125-2.931
		C16.507,27.758,18.054,27.752,18.634,29.628z M13.296,2.073c0.283,1.469-0.297,2.493-1.092,3.408
		C12.272,4.192,11.837,2.646,13.296,2.073z M5.603-60.103c0.697,1.239-0.201,1.659-1.076,2.092
		C4.251-59.034,4.608-59.731,5.603-60.103z M108.597,41.856c-2.857,1.467-4.902-1.408-6.943-2.581
		c-10.791-6.197-23.424-8.526-33.758-15.388c-6.348-2.848-13.113-4.215-19.652-6.807c-3.738-1.48-7.125-3.901-10.857-5.257
		C31.61,9.729,25.634,8.397,20.62,5.842C15.87,3.422,6.095-3.604,1.983,2.206c4.023,6.5,2.592,16.139,9.5,20.104
		c-2.055,0.338-1.666-1.143-3.82,0.35c-2.592-1.817-3.979-5.981-7.021-6.923c-1.319,1.749-5.264,2.144-6.1,4.14
		c5.338,4.78,10.996,13.176,11.719,21.578c-3.717-3.383-4.975-13.393-9.674-16.557c-0.75,0.606-1.022,1.459-2.518,1.682
		c-4.111-2.51-7.354-6.708-12.411-7.379c-0.538,0.987,0.343,1.489,0.763,2.376c-1.162,0.755-0.961-1.132-1.967-0.681
		c0.481,3.931-1.646,8.216-1.595,12.741c0.052,4.447,2.694,9.885-1.072,13.009c-4.006-2.98-0.34-9.3-1.146-14.481
		c-0.172-1.096-1.098-1.893-1.413-3.041c-0.804-2.933,0.181-7.351-2.792-8.715c-2.443,3.616-6.309,6.991-7.762,11.222
		c-0.526,1.538,0.068,4.236-2.025,4.58c1.38-5.795,1.84-12.064,4.018-17.448c-4.365-7.854-10.416-2.64-14.229,1.938
		c-1.467,1.763-3.223,2.952-3.992,3.9c-1.307,1.613-1.656,4.344-2.834,6.149c-2.052,3.148-4.645,5.515-5.354,7.83
		c-0.43,1.405,0.091,3.022-0.314,4.468c-0.52,1.858-2.585,3.79-3.752,6.008c-1.373,2.607-1.941,5.74-3.246,7.592
		c-1.046,1.486-2.955,2.106-4.118,3.503c-3.849,4.618-5.733,10.907-10.024,13.697c-1.514-0.063-2.441-1.259-2.854-3.454
		c1.619-4.429,5.845-7.495,7.507-12.015c0.508-1.387-0.021-3.229,0.711-4.596c1.148-2.146,3.401-2.604,5.178-4.281
		c2.149-2.022,2.904-5.419,4.832-8.099c1.021-1.421,2.727-2.119,3.722-3.377c5.733-7.236,8.112-17.195,13.428-23.521
		c-0.594-2.471,1.276-5.2-1.096-7.51c-1.453,1.017-3.92,1.509-4.246,3.107c-2.149-4.607-5.59-6.706-10.048-6.826
		c-3.663,2.787-8.881,7.789-13.641,7.865c-1.724-3.753,2.805-4.564,5.067-5.991c5.563-3.51,12.134-8.9,9.248-14.757
		c0.614-1.117,2.044-0.194,3.565-1.143c1.09-2.416-1.599-5.961-3.205-7.272c-5.475-4.475-17.146,0.845-18.336-6.791
		c7.469-8.111,15.74,5.581,25.26-0.232c1.794-3.148,3.166-8.589-2.128-9.363c-0.793-2.173,2.875-2.049,2.153-4.183
		c0.094-1.682-1.332-0.412-1.427-1.729c0.61-0.236,1.39-0.387,0.935-1.172c-0.758-5.68-6.965-12.799-1.67-14.753
		c2.383,2.44,2.521,9.241,7.688,6.272c0.977-4.75-3.512-7.523-4.727-12.026c-1.467-1.755-6.606-6.047-3.584-8.459
		c6.451,3.958,8.053,17.344,15.964,18.47c1.813-3.25,1.608-10.66,0.833-15.118c-0.647-3.738-6.551-13.848-2.289-18.047
		c4.234-4.173,9.824,3.16,10.572,7.094c1.207,6.348-6.651,12.254-5.221,19.146c0.362,1.743,1.668,5.133,3.076,6.875
		c1.359,1.682,6.882,5.806,10.051,6.827c3.771,1.212,6.549,2.036,10.648,0.519c5.973-6.064,12.734-10.463,15.601-18.104
		c1.028-2.742,0.376-7.14,4.56-7.577c2.18,2.417-0.01,5.227-1.785,6.688c-1.27,4.31-2.977,8.391-5.274,12.172
		c0.153,1.621,0.503,3.344,1.255,5.276c1.961,1.116,3.996,2.09,5.074,4.925c0.848,0.442,1.543-0.884,3.168-1.016
		c1.084,0.466,1.5,2.226,2.869,2.139c6.547-1.064,10.889-3.852,16.906-5.853c5.439-1.812,7.195-6.448,11.676-8.546
		c4.816-2.259,6.668-4.106,10.709-4.744c2.033,1.036,2.264,3.118,1.648,5.149c-5.889,3.285-7,8.535-13.527,9.577
		c-1.488,0.236-3.195-0.616-4.865-0.188c-5.201,1.331-9.652,6.274-15.225,8.372c-0.01,3.193-3.01,4.849-5.213,6.912
		c0.67,1.243,1.598,0.98,1.285,2.646c-0.471,0.969-2.277,1.252-2.264,2.473c0.934,0.543,0.691,3.372,2.473,2.266
		c0.869,1.359-1.668,1.485-0.156,2.233c4.342,2.451,9.736-4.632,13.438-1.685c-0.461,5.549-11.227,1.847-11.789,6.835
		c1.697,0.558,4.527-1.085,5.246,1.377c-2.932,1.394-5.75-1.024-8.809-0.235c-1.785,0.46-3.316,2.212-5.166,2.966
		c-0.721,0.292-4.932-0.096-4.5,2.315c0.73-0.114,1.619-1.749,2.377-0.764C3.401-8.422,1.72-8.072,1.694-6.876
		c2.26,2.68,5.697,3.069,9.033,3.658C22.485,4.358,35.493,9.507,48.669,14.323c0.398-0.124,0.369-0.47,0.666-0.649
		c-0.191-0.541-0.092-0.93,0.016-1.314c1.857-0.565-0.174,1.054,0.111,1.71c4.916,4.521,11.793,4.636,18.211,6.396
		c6.824,1.872,14.172,6.89,21.063,9.848c5.143,2.206,10.037,5.005,14.914,7.015C105.851,38.232,109.802,37.79,108.597,41.856z
		 M-72.702,78.55c-1.895,2.333-2.098,5.536-4.037,7.847C-76.331,83.515-74.563,79.582-72.702,78.55z M-62.361,60.388
		c-0.953,0.942-0.438,2.64-2.011,3.264C-64.479,62.369-62.893,60.242-62.361,60.388z M-56.485-26.231
		c-2.105-0.204-6.403,0.458-6.83-0.867C-61.089-26.718-58.177-27.657-56.485-26.231z M-112.847-10.565
		c1.813-0.174,2.92,0.359,2.812,2.107C-111.849-8.285-112.83-8.941-112.847-10.565z M107.972-29.25
		c1.018-0.902,1.613-0.293,3.25-0.326c0.596,1.354,1.637,2.265,1.625,4.225C110.243-24.433,107.765-26.289,107.972-29.25z"/>
</symbol>
<g id="Layer_1">
	<circle fill="#58595B" cx="76.027" cy="75.796" r="72.326"/>
</g>
<g id="Layer_2">
	
		<use xlink:href="#Grime"  width="225.693" height="172.793" x="-112.847" y="-86.396" transform="matrix(0.6289 0 0 -0.6289 75 66.7065)" overflow="visible"/>
</g>
</svg>
