<?xml version="1.0" standalone="no"?>
<!DOCTYPE svg PUBLIC "-//W3C//DTD SVG 20010904//EN"
 "http://www.w3.org/TR/2001/REC-SVG-20010904/DTD/svg10.dtd">
<svg version="1.0" xmlns="http://www.w3.org/2000/svg"
 width="48" height="48" viewBox="0 0 981.000000 982.000000"
 preserveAspectRatio="xMidYMid meet">
<g transform="translate(0.000000,982.000000) scale(0.100000,-0.100000)"
fill="#000000" stroke="none">
<path d="M4615 9814 c-622 -46 -1228 -200 -1814 -462 -214 -97 -323 -169 -818
-541 -551 -413 -622 -478 -866 -779 -203 -250 -252 -322 -444 -652 -193 -330
-229 -402 -321 -630 -141 -355 -238 -700 -302 -1083 -48 -287 -52 -365 -47
-832 4 -449 13 -546 71 -847 51 -261 174 -671 283 -936 102 -249 292 -608 448
-847 132 -201 479 -628 627 -771 116 -113 540 -462 688 -566 250 -177 651
-391 959 -512 376 -149 888 -279 1280 -326 194 -23 549 -32 796 -21 314 15
425 32 864 135 314 74 393 96 585 167 258 95 387 154 661 306 198 109 550 341
695 457 434 347 872 848 1168 1336 308 508 543 1169 631 1780 39 274 43 342
39 790 -4 433 -5 436 -36 625 -55 326 -93 501 -153 710 -38 130 -299 757 -366
880 -146 265 -317 530 -482 745 -73 96 -709 742 -786 798 -27 20 -86 66 -130
101 -44 36 -143 106 -220 157 -670 441 -1477 730 -2225 799 -156 14 -678 27
-785 19z m865 -3133 c0 -638 3 -1166 6 -1175 6 -14 118 -16 1170 -16 l1164 0
0 -585 0 -585 -1167 -2 -1168 -3 -3 -1167 -2 -1168 -580 0 -580 0 -2 1168 -3
1167 -1167 3 -1168 2 0 585 0 585 1168 2 1167 3 3 1173 2 1172 580 0 580 0 0
-1159z"/>
</g>
</svg>
