<?xml version="1.0" standalone="no"?>
<!DOCTYPE svg PUBLIC "-//W3C//DTD SVG 20010904//EN"
 "http://www.w3.org/TR/2001/REC-SVG-20010904/DTD/svg10.dtd">
<svg id="close" version="1.0" xmlns="http://www.w3.org/2000/svg"
 width="35" height="35" viewBox="0 0 950 950"
 preserveAspectRatio="xMidYMid meet">
<g transform="translate(0.000000,950) scale(0.06,-0.06)">
<path d="M316 9404 c-168 -146 -306 -269 -306 -274 0 -5 968 -971 2150 -2146
1182 -1176 2150 -2140 2150 -2144 0 -4 -968 -968 -2150 -2144 -1182 -1175
-2150 -2141 -2150 -2146 0 -9 574 -532 591 -538 5 -2 974 953 2154 2123 l2145
2126 2135 -2123 c1175 -1168 2142 -2123 2149 -2123 8 0 149 120 314 267 l301
268 -2154 2142 c-1185 1178 -2155 2144 -2155 2148 0 4 970 971 2155 2149
l2155 2142 -311 269 c-171 149 -315 270 -319 270 -5 0 -968 -957 -2140 -2126
l-2130 -2127 -2130 2127 c-1172 1169 -2134 2126 -2139 2126 -5 0 -146 -119
-315 -266z"/>
</g>
</svg>
