<svg xmlns="http://www.w3.org/2000/svg" viewBox="0 0 100 100">
  <g fill-rule="evenodd" clip-rule="evenodd">
    <path d="M81.142 63.934c2.201 6.148 7.896 8.756 13.579 
11.373-10.826.045-20.911-2.136-27.157-7.3-1.278.12-2.355.445-3.689.511-.434-.184.19-1.056.504-1.699.758-1.549 
1.681-3.637 1.845-6.111.575-8.784-5.864-14.281-11.232-17.49 6.161-.308 
13.479-.169 20.452-.169 2.259 0 5.227.362 
5.364-1.528.198-2.701-4.837-1.869-7.041-1.869H55.998c-3.086 
0-6.146.309-8.886 
0-1.37-.153-2.767-.712-4.192-1.018-4.082-.878-9.323-1.3-14.25-.849-6.407.587-11.803 
2.476-15.926 4.245-.071-11.588 6.248-17.74 13.412-22.244 7.36-4.629 
16.445-7.291 27.494-7.811 11.77-.555 22.366 2.306 30.176 6.452 7.032 
3.734 15.042 10.557 15.759 20.546.521 7.239-2.85 12.592-6.539 
16.64-3.264 3.58-7.698 5.827-11.904 8.321zM27.329 30.991c.538 1.103 
3.62.85 6.035.85h42.079c2.787 0 5.364.377 5.364-1.699 
0-2.188-3.327-1.698-5.029-1.698H42.082c-4.614 0-9.181-.327-13.58 
0-.171.014-.099.143-.167.17-.853.338-1.581 1.202-1.006 2.377z"/>
    <path d="M4.864 85.837c3.658-2.352 8.161-3.849 
9.556-8.488-.527-.769-1.471-.963-2.179-1.361C7.015 73.055.074 67.583.673 
58.668c.44-6.558 5.212-11.359 10.226-14.432 5.525-3.387 12.248-5.355 
19.279-5.773 12.303-.731 24.141 3.516 30.344 9.849 2.735 2.793 5.384 
7.217 4.86 12.904-.393 4.271-2.665 7.57-4.86 9.848-6.324 6.562-19.206 
11.126-33.194 9.509-.794-.091-1.831-.427-2.515-.338-1.194.151-2.655 
1.715-4.023 2.377-4.431 2.148-9.63 2.752-15.926 3.225zm7.376-32.603c.724 
1.484 6.757.85 9.388.85h20.453c2.717 0 8.55.896 8.55-1.698 
0-1.502-1.207-1.647-3.185-1.697-4.893-.127-9.995 0-14.585 0-7.326 
0-13.417-.45-19.447 0-.171.012-.098.142-.167.169-.853.337-1.581 
1.203-1.007 2.376zm0 11.887c.611 1.252 5.525.849 7.712.849h17.1c2.852 0 
6.573.833 6.874-1.697.161-1.365-.885-1.568-2.347-1.697-3.658-.327-8.05 
0-12.072 0-5.146 0-10.415-.422-16.093 
0-.171.011-.098.142-.167.17-1.025.404-1.531 1.301-1.007 2.375z"/>
  </g> </svg>
