<?xml version="1.0" standalone="no"?>
<!DOCTYPE svg PUBLIC "-//W3C//DTD SVG 20010904//EN"
 "http://www.w3.org/TR/2001/REC-SVG-20010904/DTD/svg10.dtd">
<svg version="1.0" xmlns="http://www.w3.org/2000/svg"
 width="20px" height="20px" viewBox="0 0 512 512"
 preserveAspectRatio="xMidYMid meet">
<g transform="translate(0.000000,512.000000) scale(0.100000,-0.100000)">
<path d="M1260 4684 c-94 -20 -196 -74 -272 -144 -63 -57 -137 -158 -152 -207
l-7 -23 -240 0 c-216 0 -244 -2 -277 -19 -69 -35 -102 -95 -102 -184 0 -66 31
-129 83 -171 l39 -31 247 -3 246 -3 35 -66 c69 -135 226 -259 376 -298 77 -20
235 -20 305 1 84 25 184 81 243 138 57 56 127 156 148 212 l12 34 1406 0
c1346 0 1407 1 1445 19 76 35 115 95 115 177 0 80 -36 141 -102 175 -36 18
-83 19 -1447 19 l-1410 0 -31 59 c-130 243 -399 372 -660 315z m205 -422 c102
-50 136 -169 76 -264 -68 -107 -212 -116 -294 -18 -84 99 -46 267 67 299 39
11 112 3 151 -17z"/>
<path d="M3210 3104 c-161 -34 -319 -155 -388 -296 l-33 -68 -1197 0 c-834 0
-1209 -3 -1237 -11 -96 -26 -150 -106 -143 -210 5 -66 38 -118 99 -154 33 -20
57 -20 1256 -25 l1222 -5 32 -65 c44 -88 161 -205 250 -248 125 -60 291 -79
427 -47 157 37 305 152 376 293 l36 72 413 0 c252 0 426 4 449 10 186 52 181
328 -7 379 -26 7 -185 11 -452 11 -350 0 -413 2 -413 14 0 26 -99 164 -152
211 -144 129 -344 181 -538 139z m221 -400 c40 -20 87 -79 99 -124 30 -111
-64 -226 -186 -225 -133 2 -220 146 -160 268 43 87 160 125 247 81z"/>
<path d="M1230 1544 c-169 -45 -301 -153 -376 -306 l-28 -58 -231 0 c-220 0
-233 -1 -275 -22 -67 -35 -103 -86 -108 -157 -8 -106 50 -187 148 -210 25 -6
139 -11 255 -11 l210 0 34 -68 c50 -96 157 -202 253 -247 269 -128 580 -60
749 165 27 36 56 84 65 108 l17 42 1386 0 c916 0 1401 4 1431 11 185 42 204
300 28 374 -33 13 -197 15 -1442 15 l-1405 0 -7 23 c-13 44 -96 158 -152 207
-64 58 -190 123 -270 139 -73 15 -216 13 -282 -5z m225 -393 c74 -34 115 -95
115 -171 0 -51 -12 -80 -50 -124 -84 -95 -248 -69 -301 48 -43 96 -2 202 96
247 51 23 89 23 140 0z"/>
</g>
</svg>
