<?xml version="1.0" standalone="no"?>
<!DOCTYPE svg PUBLIC "-//W3C//DTD SVG 20010904//EN"
 "http://www.w3.org/TR/2001/REC-SVG-20010904/DTD/svg10.dtd">
<svg id="plus" version="1.0" xmlns="http://www.w3.org/2000/svg"
 width="38" height="38" viewBox="-6 -6 48 48"
 preserveAspectRatio="xMidYMid meet">
	<g transform="translate(0.000000,50.000000) scale(0.100000,-0.100000)">
	<path d="M230 345 l0 -75 -75 0 c-60 0 -75 -3 -75 -15 0 -12 15 -15 75 -15
	l75 0 0 -75 c0 -60 3 -75 15 -75 12 0 15 15 15 75 l0 75 75 0 c60 0 75 3 75
	15 0 12 -15 15 -75 15 l-75 0 0 75 c0 60 -3 75 -15 75 -12 0 -15 -15 -15 -75z"/>
	</g>
</svg>
