<svg xmlns="http://www.w3.org/2000/svg" viewBox="0 0 100 100">
  <g fill-rule="evenodd" clip-rule="evenodd">
    <path d="M95.254 75.097v1.199c-.715.516-1.147 1.314-1.938 1.754-1.917-1.973-3.738-3.845-5.816-5.814-.678-.646-1.395-1.379-2.214-1.662-1.025-.354-3.074-.322-4.431-.185-3.278.335-6.868 3.676-8.676 6.276-1.181 1.697-1.768 3.42-1.754 6.275.015 3.272 1.992 4.67 3.877 6.554.955.955 1.829 1.738 2.954 2.861.198.199.921.891.922.923.021.482-1.732 1.477-1.938 1.939h-.275c-7.131-.487-12.108-3.86-15.6-8.308-3.094-3.939-6.557-11.633-3.046-17.906.039-.341-.361-.635-.554-.831-8.178-8.356-16.723-16.63-24.921-24.828-.214-.214-.41-.703-.831-.646-1.647.775-3.419 1.556-5.815 1.569-5.983.033-10.913-3.16-14.029-6.276-2.371-2.371-4.658-5.671-5.723-9.506-.262-.944-.885-3.43-.646-4.523.207-.949 1.283-1.248 1.846-2.031 1.5 1.365 2.572 2.572 3.876 3.877 1.049 1.049 2.771 3.09 4.246 3.599 1.22.422 3.928.37 5.354 0 3.673-.952 8.186-5.566 9.229-9.045.317-1.056.403-4.191.092-5.261-.442-1.52-2.366-3.29-3.6-4.523-.53-.53-1.256-1.165-2.031-1.938-.427-.428-1.949-1.773-1.938-2.031.001-.039.697-.697.923-.923.414-.414.714-.736 1.108-.831.825-.199 1.985.051 2.769.185 5.8.987 10.196 4.436 13.014 8.03 2.871 3.662 5.905 9.811 3.876 15.875-.193.576-.897 1.717-.923 2.123-.026.414.186.447.553.831 8.188 8.543 16.611 16.612 24.829 24.829.223.223.423.713.831.646 5.969-3.463 13.613-.624 17.721 2.584 4.439 3.465 8.037 8.872 8.679 15.139zM94.884 21.193c-3.461 3.708-7.227 7.111-10.707 10.799-5.141-4.938-10.302-10.118-15.506-15.322-.342-.343-1.014-.997-1.015-1.016-.012-.275 2.183-2.275 2.584-2.677 2.701-2.701 5.806-5.745 8.215-8.122 5.481 5.443 10.982 10.863 16.429 16.338z"/>
    <path d="M78.455 37.715c-3.231 3.097-6.458 6.458-9.784 9.783-.334.334-1.296 1.381-1.384 1.385-.157.006-.913-.913-1.2-1.2-2.707-2.706-5.622-5.563-8.308-8.215 2.284-2.423 4.731-4.685 7.016-7.107-.594-.625-1.191-1.284-1.938-2.03-.079-.08-.657-.647-.646-.647-.201-.008-1.597 1.505-1.846 1.754-1.735 1.736-3.742 3.949-5.354 5.261-1.314-1.515-2.914-2.746-4.153-4.338a768.59 768.59 0 0 0 11.168-11.168c5.498 5.484 11.082 10.884 16.429 16.522zM24.091 73.065a1411.946 1411.946 0 0 0 15.137-15.137c2.931 2.626 5.443 5.35 8.4 8.307.225.225 1.194.964 1.2 1.106.014.327-2.186 2.188-2.492 2.493L30.368 85.802c-.405.404-.778.974-1.2 1.199-.832.444-2.091.587-3.138.923-6.815 2.191-14.371 4.763-21.044 6.923 1.099-4.098 2.527-8.015 3.877-12.091 1.164-3.518 2.194-7.069 3.415-10.707.159-.474.261-1.101.461-1.477.376-.705 1.576-1.669 2.4-2.492 2.395-2.395 5.031-4.938 7.292-7.199 3.399-3.399 6.789-7 9.968-9.876 1.009.977 2.082 1.989 3.23 3.138.115.114 1.011.918 1.016 1.016.012.296-1.549 1.551-1.938 1.938L22.338 69.465c-.229.229-.923.934-.923.924-.01.242 1.161 1.253 1.292 1.385.546.546.928.869 1.384 1.291z"/>
  </g>
</svg>
