
<svg xmlns="http://www.w3.org/2000/svg" viewBox="0 0 100 100">
  <g fill-rule="evenodd" clip-rule="evenodd">
    <path d="M47.418 1.892h5.262c.914.338 2.936.434 4.135.751 10.76 2.853 20.146 13.716 19.92 27.061-.09 5.329-2.523 10.851-4.51 15.222C67.024 56.367 60.5 66.597 53.996 76.31c-1.348 2.012-2.416 4.267-4.135 5.826-7.468-10.975-15.993-24.23-21.987-37.585-2.021-4.502-4.519-9.771-4.51-15.41.011-7.519 3.297-13.69 7.141-18.229 3.804-4.491 9.811-8.163 16.913-9.02zM42.72 19.557c-6.03 5.762-3.078 17.045 4.51 18.98 4.166 1.063 8.014-.659 9.959-2.443 7.249-6.645 2.209-20.838-8.832-19.168-2.262.342-4.243 1.298-5.637 2.631z"/>
    <path d="M55.498 98.109H44.599c-.041-.146-.157-.219-.376-.188-12.582-1.09-25.677-2.792-32.135-9.961-.903-1.002-1.918-2.369-2.255-3.758-1.164-4.81 2.101-8.267 4.698-10.148 5.28-3.825 13.778-5.807 21.235-6.766.155 1.539.722 3.661.564 4.887-4.458.819-8.495 1.456-12.779 3.007-2.716.982-8.935 3.623-8.833 7.141.066 2.292 3.438 4.514 5.826 5.638 15.072 7.1 44.129 6.939 59.009-.188 2.632-1.261 5.956-3.069 5.825-5.826-.085-1.776-1.98-3.317-3.57-4.322-5.291-3.341-11.617-4.03-18.041-5.638.256-1.561.338-3.296.752-4.698 7.736 1.003 15.438 2.969 20.672 6.578 2.119 1.461 4.138 3.459 4.886 6.014.987 3.368-.384 6.408-2.067 8.269-5.765 6.372-21.655 9.248-32.512 9.959z"/>
  </g>
</svg>
