<svg xmlns="http://www.w3.org/2000/svg" viewBox="0 0 100 100">
  <g fill-rule="evenodd" clip-rule="evenodd">
    <path d="M72.267 8.382c1.231-.125 2.472-.233 
3.833-.122.385.032.958.205 1.217.122.326-.105.825-1.133 
1.033-1.459.965-1.516 1.931-3.022 2.798-4.502 1.901.735 3.734 1.539 
5.598 2.311-.427 1.934-.912 3.896-1.398 
5.962-.071.309-.206.736-.183.852.057.284.643.624.973.912 1.026.896 1.774 
1.889 2.616 2.86 2.329-.531 4.617-1.103 6.997-1.582.732 1.844 1.531 3.62 
2.25 5.475-.43.443-1.007.705-1.52 1.034-1.483.951-3.001 1.994-4.565 
2.921.258 1.459.275 3.595 0 5.049 2.007 1.3 4.101 2.513 6.085 3.833-.688 
1.907-1.531 3.66-2.25 
5.537-2.379-.501-4.708-1.051-7.057-1.581-.677.542-1.122 1.309-1.704 
1.946-.578.634-1.301 1.131-1.947 1.704.487 2.393 1.087 4.672 1.582 
7.056-1.838.719-3.702 1.408-5.477 
2.191-1.38-1.944-2.525-4.124-3.893-6.083-1.663.162-3.544.265-5.11-.061-1.345 
2.022-2.645 4.087-3.955 6.144-1.833-.784-3.688-1.546-5.537-2.312a223.056 
223.056 0 0 1 1.705-6.935c-.6-.635-1.316-1.164-1.946-1.765a24.59 24.59 0 
0 1-1.766-1.885c-2.356.462-4.627 1.01-6.996 
1.46-.739-1.816-1.432-3.68-2.191-5.476 1.902-1.384 4.047-2.524 
5.962-3.895-.133-1.234-.222-2.474-.12-3.833.029-.401.199-.957.12-1.217-.103-.343-1.116-.819-1.459-1.033-1.513-.948-3.044-1.946-4.503-2.861.766-1.85 
1.528-3.703 2.313-5.536 2.343.497 4.634 1.044 6.935 1.582.624-.613 
1.153-1.323 1.765-1.947.604-.617 1.211-1.217 
1.887-1.765-.488-2.291-1.03-4.526-1.462-6.875 1.819-.737 3.772-1.663 
5.538-2.251 1.312 1.974 2.47 4.1 3.832 6.025zm-1.826 10.099c-2.362 
1.355-4.335 4.07-4.016 7.97.174 2.143 1.241 3.903 2.372 5.051 2.432 
2.464 6.212 3.05 9.188 1.764 2.863-1.239 4.931-3.893 
5.11-7.24.144-2.681-1.091-4.852-2.251-6.083a8.396 8.396 0 0 
0-6.874-2.556 8.583 8.583 0 0 0-3.529 1.094zM2.848 
70.256v-7.969c3.094-.436 6.09-.969 9.126-1.461.537-2.404 1.422-4.459 
2.494-6.327-1.783-2.496-3.499-5.059-5.292-7.543 1.569-1.659 3.35-3.35 
4.927-4.929.218-.218.391-.583.73-.608 2.489 1.811 4.979 3.621 7.544 
5.354a20.39 20.39 0 0 1 6.145-2.495c.516-3.074.986-6.194 
1.521-9.248h7.849c.553 3.078 1.052 6.208 1.643 9.248 2.387.554 4.318 
1.563 6.206 2.616 2.489-1.871 5.07-3.649 7.543-5.537 1.659 1.57 3.351 
3.351 4.929 4.928.218.218.582.391.608.729-1.807 2.535-3.623 5.058-5.354 
7.667.942 1.574 1.759 3.457 2.312 5.353.071.25.052.612.304.792 3.008.601 
6.288.934 9.248 1.581v7.788c-3.105.526-6.153 1.106-9.308 1.582-.631 
2.31-1.488 4.395-2.556 6.266 1.816 2.523 3.658 5.023 5.476 7.545-1.503 
1.702-3.301 3.361-4.868 
4.929-.217.217-.39.582-.73.607-2.522-1.797-5.083-3.554-7.604-5.353-1.888 
1.093-3.939 2.022-6.266 2.677-.523 3.086-1.002 6.219-1.643 
9.187h-7.789c-.536-3.034-.985-6.153-1.521-9.187-2.237-.663-4.376-1.425-6.145-2.557-2.63 
1.709-5.191 3.49-7.727 5.293a289.622 289.622 0 0 
1-5.598-5.597c.038-.004.072-.009.061-.061 1.792-2.507 3.602-4.996 
5.354-7.544-1.144-1.776-1.942-3.898-2.555-6.206-3.089-.438-5.98-1.075-9.064-1.52zm26.343-13.627c-1.162.57-2.138 
1.238-2.92 2.007-1.919 1.889-3.408 4.781-3.103 8.699.351 4.507 3.647 
7.876 7.058 9.188 2.254.867 4.789.905 6.996.244 3.746-1.126 6.879-4.435 
7.544-8.701a11.159 11.159 0 0 
0-1.096-6.814c-1.659-3.212-5.294-6.152-10.586-5.72-1.564.13-2.753.538-3.893 
1.097z"/>
  </g> </svg>
