<svg xmlns="http://www.w3.org/2000/svg" viewBox="0 0 100 100">
  <g fill-rule="evenodd" clip-rule="evenodd">
    <path d="M56.638 52.297c7.332 1.922 13.275 5.725 18.308 
10.217.627.561 1.867.816 1.705 1.918-3.146-.494-5.451.654-8.304 
0-1.346-.311-2.873-2.01-3.831-2.557-10.615-6.057-25.922-6.029-36.402.213-9.132 
5.441-16.958 15.424-17.881 28.102-.219 2.994.186 5.914-2.341 6.385-6.266 
1.161-3.262-10.827-2.13-14.688 4.533-15.475 15.281-24.938 
30.653-29.377-8.719-3.831-15.544-12.196-15.965-23.204-.551-14.393 
10.226-26.265 24.481-27.248 8.09-.558 15.508 2.996 20.01 7.45 4.626 
4.578 8.004 11.785 7.876 19.372-.189 11.107-7.335 19.744-16.179 
23.417zM28.326 19.301c-.707 1.444-1.313 3.396-1.704 5.535-2.272 12.443 
6.832 21.073 15.328 22.991 12.106 2.733 23.818-5.645 
24.693-17.88.427-5.942-2.572-12.735-5.534-15.754-3.927-4-9.771-6.67-17.455-5.747-7.727.927-13.339 
6.789-15.328 10.855z"/>
    <path d="M69.197 67.197H81.12v6.172h-2.98v5.537c5.535.494 11.991.07 
17.88.211v11.498c.546.588 2.419-.146 
2.98.424V97H87.079v-6.174h2.98v-5.533c-3.546-.496-8.017-.072-11.92-.213v5.535c.573.488 
2.054.074 2.98.211V97H69.196v-5.961c.637-.426 2.01-.119 
2.98-.213v-5.533c-3.477-.496-7.875-.072-11.707-.213v5.535c.546.588 
2.418-.146 
2.979.424V97H51.527v-6.174h2.98V79.117h17.668v-5.535c-.544-.588-2.417.148-2.98-.424.002-1.988.002-3.972.002-5.961z"/>
  </g> </svg>
