<svg xmlns="http://www.w3.org/2000/svg" viewBox="0 0 100 100">
  <g fill-rule="evenodd" clip-rule="evenodd">
    <path d="M24.544.722H75.4c-.365 1.26.531 1.261 1.537 
1.152.615.067-.021 1.387.384 1.666 3.7.407 7.506-.613 10.504.127 
1.67.413 3.173 1.905 3.715 3.587.812 2.522.256 7.331.256 10.889v66.355c0 
6.51 1.137 12.688-3.587 
14.347-2.176.766-6.296.257-9.352.257H21.469c-3.203 
0-6.898.473-9.351-.129-2.187-.534-3.645-2.545-4.099-4.483V8.152c.585-2.27 
2.152-4.277 4.74-4.611 2.688-.347 6.157.252 9.735 0 
.34-.301-.095-1.376.256-1.666h1.793l.001-1.153zm-9.607 
9.863V92.44h69.942V10.2h-7.685c-.086.983.168 2.305-.13 
3.074H22.622V10.2h-7.557c-.149.022-.14.203-.128.385z"/>
    <path d="M32.103 32.234c2.178-1.991 5.266-5.266 7.686-7.687 
1.079-1.079 2.293-2.728 4.356-2.177 1.525.407 3.586 2.447 3.586 4.227 0 
1.578-1.769 3.049-2.946 4.228-2.625 2.625-4.537 4.409-7.173 7.045-1.639 
1.639-3.003 4.207-6.148 
3.458-1.84-.438-3.134-2.104-4.868-3.458-.83-.648-1.357-1.04-2.306-1.793-.777-.618-1.737-1.25-1.793-2.306-.068-1.285.968-2.169 
1.665-2.946.825-.918 1.679-1.897 2.69-1.921 2.147-.053 3.539 2.774 5.251 
3.33zM56.825 27.878c3.174-.48 6.828-.128 10.376-.128h5.125c1.777 0 
3.43-.207 4.738.256 3.984 1.409 4.128 7.443.257 
9.096-2.299.98-7.881.384-11.017.384h-5.636c-4.067 
0-6.735-.066-7.815-3.075-1.173-3.272 1.006-6.083 3.972-6.533zM31.974 
54.779c2.219-1.944 5.245-4.989 7.687-7.43 1.323-1.323 1.969-2.88 
4.611-2.561 1.525 1.189 3.525 2.079 3.458 4.354-.045 1.592-1.862 
2.888-3.074 4.1l-7.174 7.174c-1.681 1.68-2.655 3.813-5.637 
3.459-1.875-.225-3.765-2.397-5.124-3.459-1.042-.815-1.443-1.02-2.434-1.794-.711-.555-1.75-1.349-1.793-2.435-.046-1.143.846-2.056 
1.538-2.816.608-.671 1.516-1.771 2.433-1.923 1.476-.24 2.125.671 3.075 
1.409.912.709 1.766 1.165 2.434 1.922zM57.081 50.296c3.366-.465 
7.091-.128 10.633-.128 2.815 0 7.502-.625 9.864.513 3.378 1.625 3.453 
7.247-.129 8.838-2.215.983-7.331.385-10.889.385h-5.636c-1.991 
0-4.059.173-5.253-.256-1.938-.697-3.672-2.924-2.945-5.894.61-2.493 
2.649-3.223 4.355-3.458zM31.974 76.428c2.389-2.111 5.324-5.065 
7.814-7.558 1.11-1.111 2.073-2.896 4.356-2.306 1.286.334 3.586 2.425 
3.586 4.228 0 1.692-1.821 2.974-3.074 4.227-2.619 2.621-4.62 4.62-7.302 
7.302-1.426 1.426-2.537 3.304-4.868 
3.331-1.313.015-2.107-.652-3.074-1.409-1.704-1.332-3.288-2.621-4.996-3.972-.819-.647-1.879-1.19-1.921-2.434-.043-1.274.968-2.052 
1.665-2.818.807-.887 1.552-1.851 2.563-1.921 2.142-.15 3.728 2.609 5.251 
3.33zM56.569 72.072c2.811-.514 6.948-.127 10.248-.127h5.123c1.99 0 
4.187-.211 5.509.384 3.775 1.695 3.554 7.506-.255 
8.967-2.406.922-7.359.385-11.019.385-5.683 0-12.211 
1.086-13.449-3.46-.89-3.266 1.311-5.684 3.843-6.149z"/>
  </g> </svg>
