<svg xmlns="http://www.w3.org/2000/svg" viewBox="0 0 100 100">
  <g fill="#010101">
    <path d="M26.68 67.279H11.207V44.291l18.015-13.042 6.3 4.532 
6.189-4.532-12.046-8.73c-.222-.221-.553-.221-.884 0L.597 
43.075c-.332.221-.442.663-.22.995l3.425 
4.753c.111.11.332.221.442.332.221 0 .332 0 
.553-.111l3.095-2.211v22.326c0 .883.773 1.658 1.657 
1.658h17.02V67.28h.111zM99.401 43.075L71.22 
22.628c-.221-.221-.553-.221-.885 0L57.848 31.58l6.188 4.531 6.631-4.863 
18.235 13.153v22.878H72.878v3.316h17.793c.883 0 1.658-.773 
1.658-1.66V46.833l2.873 2.101c.111.11.221.11.443.11h.108c.223 0 
.333-.11.444-.332l3.425-4.752c.224-.223.112-.665-.221-.885z"/>
    <path d="M74.535 54.459h.109c.223 0 
.332-.111.442-.332l3.428-4.752c.22-.331.11-.772-.111-.994L50.111 
28.044c-.111-.111-.333-.111-.442-.111-.111 0-.332 0-.443.111L20.933 
48.49c-.332.222-.442.665-.11.995l3.426 
4.753c.111.109.332.221.442.332h.11c.11 0 .332 0 
.442-.111l3.096-2.211v22.326c0 .883.773 1.658 1.657 1.658h39.566c.884 0 
1.658-.775 1.658-1.658V52.469l2.874 
2.102c.11-.112.22-.112.441-.112zM52.873 
72.695h-5.857V58.326h5.857v14.369zm15.03 
0H56.189V56.668c0-.883-.774-1.656-1.658-1.656h-9.173c-.885 
0-1.659.773-1.659 1.656v16.137H31.653V49.706l18.015-13.041 18.235 
13.151v22.879z"/>
  </g> </svg>
